<?xml version="1.0" encoding="utf-8"?>
<!-- Generator: Adobe Illustrator 25.2.0, SVG Export Plug-In . SVG Version: 6.00 Build 0)  -->
<svg version="1.1" id="Layer_1" xmlns="http://www.w3.org/2000/svg" xmlns:xlink="http://www.w3.org/1999/xlink" x="0px" y="0px"
	 viewBox="0 0 240 84" style="enable-background:new 0 0 240 84;" xml:space="preserve">
<style type="text/css">
	.st0{fill:#CE0E2D;}
</style>
<g>
	<g>
		<path d="M86.74-93.97h9.91c2.43,0,4.14,0.61,5.27,1.76c0.77,0.78,1.24,1.82,1.24,3.21c0,2.26-1.27,3.6-2.98,4.36
			c2.35,0.78,3.84,2.12,3.84,4.83c0,3.35-2.7,5.39-7.31,5.39h-9.96V-93.97z M95.32-86.17c1.63,0,2.54-0.56,2.54-1.76
			c0-1.06-0.83-1.68-2.43-1.68h-3.48v3.44H95.32z M96.09-78.77c1.63,0,2.57-0.64,2.57-1.84c0-1.06-0.83-1.76-2.62-1.76h-4.08v3.6
			H96.09z"/>
		<path d="M106.47-93.97h15.54v4.61h-10.24v2.96h9.27v4.27h-9.27v3.1h10.38v4.61h-15.68V-93.97z"/>
		<path d="M123.42-77.32l2.98-3.6c1.9,1.54,4.03,2.35,6.27,2.35c1.44,0,2.21-0.5,2.21-1.4c0-0.81-0.63-1.26-3.26-1.87
			c-4.11-0.95-7.29-2.12-7.29-6.2c0-3.63,2.84-6.26,7.48-6.26c3.28,0,5.85,0.89,7.95,2.6l-2.68,3.83c-1.77-1.26-3.7-1.93-5.41-1.93
			c-1.3,0-1.93,0.56-1.93,1.31c0,0.89,0.66,1.28,3.34,1.9c4.44,0.98,7.2,2.43,7.2,6.14c0,3.99-3.12,6.37-7.81,6.37
			C129.05-74.08,125.8-75.17,123.42-77.32z"/>
		<path d="M147.05-89.22h-5.8v-4.75h16.95v4.75h-5.8v14.8h-5.35V-89.22z"/>
		<path d="M160.55-93.97h8.28c4.89,0,8.03,2.54,8.03,6.93c0,4.61-3.51,7.04-8.31,7.04h-2.65v5.59h-5.35V-93.97z M168.44-84.25
			c1.9,0,3.06-1.01,3.06-2.6c0-1.68-1.16-2.57-3.09-2.57h-2.51v5.17H168.44z"/>
		<path d="M183.87-94.11h5.16l8.23,19.69h-5.74l-1.41-3.49h-7.45l-1.38,3.49h-5.63L183.87-94.11z M188.57-82.13l-2.15-5.56
			l-2.18,5.56H188.57z"/>
		<path d="M197.24-84.19c0-5.7,4.33-10.17,10.19-10.17c3.95,0,6.4,1.73,8.12,4.13l-3.92,3.07c-1.1-1.4-2.4-2.26-4.25-2.26
			c-2.71,0-4.61,2.32-4.61,5.22c0,2.93,1.9,5.22,4.61,5.22c2.01,0,3.2-0.95,4.36-2.37l4.03,2.9c-1.82,2.54-4.28,4.41-8.56,4.41
			C201.68-74.03,197.24-78.3,197.24-84.19z"/>
		<path d="M218.05-93.97h5.35v7.93l6.65-7.93h6.35l-7.31,8.41l7.56,11.14h-6.43l-4.86-7.26l-1.96,2.21v5.05h-5.35V-93.97z"/>
	</g>
	<g>
		<path class="st0" d="M60.52-76.85c-0.12,0.07-0.23,0.15-0.33,0.25l-3,3.04c-0.57,0.58-0.57,1.51,0,2.09
			c0.57,0.58,1.49,0.58,2.06,0l0.78-0.79l0.04,0.04l7.67-7.76c0.99-1,1.49-2.33,1.49-3.65h0c0-1.32-0.5-2.65-1.49-3.65l-7.21-7.29
			l0,0l-1.32-1.34c-0.57-0.58-1.49-0.58-2.06,0c-0.57,0.58-0.57,1.51,0,2.09l3,3.04c0.01,0.01,0.03,0.03,0.04,0.04l5.49,5.55
			c0.42,0.43,0.64,1,0.64,1.57l0,0c0,0.56-0.21,1.13-0.64,1.56L60.52-76.85z"/>
		<path class="st0" d="M28.7-85.52l15.26-15.44c0.57-0.58,0.57-1.51,0-2.09c-0.57-0.58-1.49-0.58-2.06,0L26.64-87.6
			c-0.57,0.58-0.57,1.51,0,2.09C27.21-84.94,28.13-84.94,28.7-85.52z"/>
		<path class="st0" d="M75.98-83.61L75.98-83.61c0-1.73-0.65-3.46-1.95-4.77l-0.01,0.01c-0.04-0.05-0.08-0.1-0.13-0.15l-3-3.04
			c-0.01-0.01-0.01-0.01-0.02-0.02l-19.23-19.45c-1.3-1.31-3.01-1.97-4.72-1.97v0c-1.71,0-3.42,0.66-4.72,1.97L24.61-93.21
			l-2.69-2.72c-0.57-0.58-1.49-0.58-2.06,0c-0.57,0.58-0.57,1.51,0,2.09l2.69,2.72l-1.66,1.68l-1.22-1.23
			c-0.57-0.58-1.49-0.58-2.06,0c-0.57,0.58-0.57,1.51,0,2.09l1.06,1.07l0.16,0.16l-1.66,1.68L7.04-95.94
			c-0.57-0.58-1.49-0.58-2.06,0c-0.57,0.58-0.57,1.51,0,2.09L15.11-83.6L4.98-73.35c-0.57,0.58-0.57,1.51,0,2.09
			c0.57,0.58,1.49,0.58,2.06,0L18.2-82.56l26.08-26.39c0.73-0.74,1.69-1.11,2.65-1.11l0,0c0.96,0,1.92,0.37,2.65,1.11l21.97,22.23
			l0,0l0.27,0.28c0.05,0.05,0.1,0.09,0.15,0.13l-0.01,0.01c0.73,0.74,1.1,1.71,1.1,2.68l0,0c0,0.97-0.36,1.95-1.09,2.68l0.01,0.01
			l-0.68,0.69l0,0L49.58-58.26c-0.73,0.74-1.69,1.11-2.65,1.11v0c-0.96,0-1.92-0.37-2.65-1.11L26.67-76.07l1.69-1.71L41.9-64.09
			c0.57,0.58,1.49,0.58,2.06,0c0.57-0.58,0.57-1.51,0-2.09L30.43-79.87l1.62-1.64l12.38,12.52c0.69,0.7,1.6,1.05,2.51,1.05
			c0.91,0,1.82-0.35,2.51-1.05l11.93-12.07c0.69-0.69,1.03-1.61,1.03-2.53v-0.01c0-0.92-0.35-1.84-1.03-2.53L49.44-98.21
			c-0.69-0.7-1.6-1.05-2.51-1.05c-0.91,0-1.82,0.35-2.51,1.05L29.99-83.6l0,0L19.86-73.35c-0.57,0.58-0.57,1.51,0,2.09
			c0.57,0.58,1.49,0.58,2.06,0l2.69-2.72l17.61,17.81c1.3,1.31,3,1.97,4.71,1.97l0,0c1.71,0,3.42-0.66,4.72-1.97l19.5-19.73
			c0,0,0.01,0,0.01-0.01l3-3.04c0.07-0.07,0.14-0.16,0.19-0.24C75.44-80.45,75.98-82.03,75.98-83.61z M46.49-96.12
			c0.12-0.12,0.28-0.18,0.44-0.18c0.16,0,0.32,0.06,0.44,0.18l11.93,12.07c0.12,0.12,0.18,0.29,0.18,0.44v0.01
			c0,0.16-0.06,0.32-0.18,0.44L47.37-71.08c-0.12,0.12-0.28,0.18-0.44,0.18c-0.16,0-0.32-0.06-0.44-0.18L34.11-83.6L46.49-96.12z"/>
	</g>
	<g>
		<g>
			<path d="M86.79-55.97l1.92-2.3c1.23,0.98,2.6,1.5,4.05,1.5c0.93,0,1.43-0.32,1.43-0.89c0-0.52-0.41-0.8-2.1-1.19
				c-2.66-0.61-4.71-1.35-4.71-3.96c0-2.32,1.84-3.99,4.83-3.99c2.12,0,3.78,0.57,5.13,1.66l-1.73,2.44
				c-1.14-0.8-2.39-1.23-3.49-1.23c-0.84,0-1.25,0.36-1.25,0.84c0,0.57,0.43,0.82,2.16,1.21c2.87,0.62,4.65,1.55,4.65,3.92
				c0,2.55-2.01,4.06-5.04,4.06C90.42-53.91,88.32-54.6,86.79-55.97z"/>
			<path d="M99.35-66.6h10.03v2.94h-6.61v1.89h5.99v2.73h-5.99v1.98h6.7v2.94H99.35V-66.6z"/>
			<path d="M115.55-66.69h3.33l5.31,12.56h-3.71l-0.91-2.23h-4.81l-0.89,2.23h-3.64L115.55-66.69z M118.58-59.04l-1.39-3.55
				l-1.41,3.55H118.58z"/>
			<path d="M125.41-66.6h5.9c1.91,0,3.23,0.5,4.06,1.34c0.73,0.73,1.11,1.69,1.11,2.96c0,1.91-1.02,3.17-2.57,3.83l2.98,4.35h-3.99
				l-2.51-3.78h-1.51v3.78h-3.46V-66.6z M131.15-60.61c1.18,0,1.85-0.57,1.85-1.51c0-0.98-0.71-1.48-1.87-1.48h-2.26v2.99H131.15z"
				/>
			<path d="M137.8-60.36c0-3.64,2.8-6.49,6.58-6.49c2.55,0,4.13,1.1,5.24,2.64l-2.53,1.96c-0.71-0.89-1.55-1.44-2.75-1.44
				c-1.75,0-2.98,1.48-2.98,3.33c0,1.87,1.23,3.33,2.98,3.33c1.3,0,2.07-0.61,2.82-1.51l2.6,1.85c-1.18,1.62-2.76,2.82-5.52,2.82
				C140.67-53.87,137.8-56.6,137.8-60.36z"/>
			<path d="M151.24-66.6h3.46v4.67h4.44v-4.67h3.46v12.48h-3.46v-4.74h-4.44v4.74h-3.46V-66.6z"/>
		</g>
	</g>
</g>
<g>
	<g>
		<path d="M86.74,30.62h9.91c2.43,0,4.14,0.61,5.27,1.76c0.77,0.78,1.24,1.82,1.24,3.21c0,2.26-1.27,3.6-2.98,4.36
			c2.35,0.78,3.84,2.12,3.84,4.83c0,3.35-2.7,5.39-7.31,5.39h-9.96V30.62z M95.32,38.41c1.63,0,2.54-0.56,2.54-1.76
			c0-1.06-0.83-1.68-2.43-1.68h-3.48v3.44H95.32z M96.09,45.81c1.63,0,2.57-0.64,2.57-1.84c0-1.06-0.83-1.76-2.62-1.76h-4.08v3.6
			H96.09z"/>
		<path d="M106.47,30.62h15.54v4.61h-10.24v2.96h9.27v4.27h-9.27v3.1h10.38v4.61h-15.68V30.62z"/>
		<path d="M123.42,47.26l2.98-3.6c1.9,1.54,4.03,2.35,6.27,2.35c1.44,0,2.21-0.5,2.21-1.4c0-0.81-0.63-1.26-3.26-1.87
			c-4.11-0.95-7.29-2.12-7.29-6.2c0-3.63,2.84-6.26,7.48-6.26c3.28,0,5.85,0.89,7.95,2.6l-2.68,3.83c-1.77-1.26-3.7-1.93-5.41-1.93
			c-1.3,0-1.93,0.56-1.93,1.31c0,0.89,0.66,1.28,3.34,1.9c4.44,0.98,7.2,2.43,7.2,6.14c0,3.99-3.12,6.37-7.81,6.37
			C129.05,50.5,125.8,49.41,123.42,47.26z"/>
		<path d="M147.05,35.37h-5.8v-4.75h16.95v4.75h-5.8v14.8h-5.35V35.37z"/>
		<path d="M160.55,30.62h8.28c4.89,0,8.03,2.54,8.03,6.93c0,4.61-3.51,7.04-8.31,7.04h-2.65v5.59h-5.35V30.62z M168.44,40.34
			c1.9,0,3.06-1.01,3.06-2.6c0-1.68-1.16-2.57-3.09-2.57h-2.51v5.17H168.44z"/>
		<path d="M183.87,30.48h5.16l8.23,19.69h-5.74l-1.41-3.49h-7.45l-1.38,3.49h-5.63L183.87,30.48z M188.57,42.46l-2.15-5.56
			l-2.18,5.56H188.57z"/>
		<path d="M197.24,40.39c0-5.7,4.33-10.17,10.19-10.17c3.95,0,6.4,1.73,8.12,4.13l-3.92,3.07c-1.1-1.4-2.4-2.26-4.25-2.26
			c-2.71,0-4.61,2.32-4.61,5.22c0,2.93,1.9,5.22,4.61,5.22c2.01,0,3.2-0.95,4.36-2.37l4.03,2.9c-1.82,2.54-4.28,4.41-8.56,4.41
			C201.68,50.56,197.24,46.29,197.24,40.39z"/>
		<path d="M218.05,30.62h5.35v7.93l6.65-7.93h6.35l-7.31,8.41l7.56,11.14h-6.43l-4.86-7.26l-1.96,2.21v5.05h-5.35V30.62z"/>
	</g>
	<g>
		<path class="st0" d="M59.41,47.73c-0.12,0.07-0.23,0.15-0.33,0.25l-3,3.04c-0.57,0.58-0.57,1.51,0,2.09
			c0.57,0.58,1.49,0.58,2.06,0l0.78-0.79l0.04,0.04l7.67-7.76c0.99-1,1.49-2.33,1.49-3.65h0c0-1.32-0.5-2.65-1.49-3.65L59.43,30l0,0
			l-1.32-1.34c-0.57-0.58-1.49-0.58-2.06,0c-0.57,0.58-0.57,1.51,0,2.09l3,3.04c0.01,0.01,0.03,0.03,0.04,0.04l5.49,5.55
			c0.42,0.43,0.64,1,0.64,1.57l0,0c0,0.56-0.21,1.13-0.64,1.56L59.41,47.73z"/>
		<path class="st0" d="M27.59,39.07l15.26-15.44c0.57-0.58,0.57-1.51,0-2.09c-0.57-0.58-1.49-0.58-2.06,0L25.52,36.98
			c-0.57,0.58-0.57,1.51,0,2.09C26.09,39.64,27.02,39.64,27.59,39.07z"/>
		<path class="st0" d="M74.87,40.98L74.87,40.98c0-1.73-0.65-3.46-1.95-4.77l-0.01,0.01c-0.04-0.05-0.08-0.1-0.13-0.15l-3-3.04
			c-0.01-0.01-0.01-0.01-0.02-0.02L50.53,13.56c-1.3-1.31-3.01-1.97-4.72-1.97v0c-1.71,0-3.42,0.66-4.72,1.97L23.5,31.37l-2.69-2.72
			c-0.57-0.58-1.49-0.58-2.06,0c-0.57,0.58-0.57,1.51,0,2.09l2.69,2.72l-1.66,1.68l-1.22-1.23c-0.57-0.58-1.49-0.58-2.06,0
			c-0.57,0.58-0.57,1.51,0,2.09l1.06,1.07l0.16,0.16l-1.66,1.68L5.93,28.65c-0.57-0.58-1.49-0.58-2.06,0
			c-0.57,0.58-0.57,1.51,0,2.09l10.13,10.25L3.86,51.23c-0.57,0.58-0.57,1.51,0,2.09c0.57,0.58,1.49,0.58,2.06,0l11.16-11.29
			l26.08-26.39c0.73-0.74,1.69-1.11,2.65-1.11l0,0c0.96,0,1.92,0.37,2.65,1.11l21.97,22.23l0,0l0.27,0.28
			c0.05,0.05,0.1,0.09,0.15,0.13l-0.01,0.01c0.73,0.74,1.1,1.71,1.1,2.68l0,0c0,0.97-0.36,1.95-1.09,2.68l0.01,0.01l-0.68,0.69l0,0
			L48.47,66.33c-0.73,0.74-1.69,1.11-2.65,1.11v0c-0.96,0-1.92-0.37-2.65-1.11L25.56,48.51l1.69-1.71l13.53,13.69
			c0.57,0.58,1.49,0.58,2.06,0c0.57-0.58,0.57-1.51,0-2.09L29.31,44.71l1.62-1.64L43.31,55.6c0.69,0.7,1.6,1.05,2.51,1.05
			c0.91,0,1.82-0.35,2.51-1.05l11.93-12.07c0.69-0.69,1.03-1.61,1.03-2.53v-0.01c0-0.92-0.35-1.84-1.03-2.53L48.32,26.38
			c-0.69-0.7-1.6-1.05-2.51-1.05c-0.91,0-1.82,0.35-2.51,1.05L28.87,40.99l0,0L18.74,51.23c-0.57,0.58-0.57,1.51,0,2.09
			c0.57,0.58,1.49,0.58,2.06,0l2.69-2.72L41.1,68.41c1.3,1.31,3,1.97,4.71,1.97l0,0c1.71,0,3.42-0.66,4.72-1.97l19.5-19.73
			c0,0,0.01,0,0.01-0.01l3-3.04c0.07-0.07,0.14-0.16,0.19-0.24C74.32,44.13,74.87,42.55,74.87,40.98z M45.38,28.46
			c0.12-0.12,0.28-0.18,0.44-0.18c0.16,0,0.32,0.06,0.44,0.18l11.93,12.07c0.12,0.12,0.18,0.29,0.18,0.44v0.01
			c0,0.16-0.06,0.32-0.18,0.44L46.26,53.51c-0.12,0.12-0.28,0.18-0.44,0.18c-0.16,0-0.32-0.06-0.44-0.18L33,40.99L45.38,28.46z"/>
	</g>
	<g>
		<g>
			<path d="M86.79,68.61l1.92-2.3c1.23,0.98,2.6,1.5,4.05,1.5c0.93,0,1.43-0.32,1.43-0.89c0-0.52-0.41-0.8-2.1-1.19
				c-2.66-0.61-4.71-1.35-4.71-3.96c0-2.32,1.84-3.99,4.83-3.99c2.12,0,3.78,0.57,5.13,1.66l-1.73,2.44
				c-1.14-0.8-2.39-1.23-3.49-1.23c-0.84,0-1.25,0.36-1.25,0.84c0,0.57,0.43,0.82,2.16,1.21c2.87,0.62,4.65,1.55,4.65,3.92
				c0,2.55-2.01,4.06-5.04,4.06C90.42,70.68,88.32,69.98,86.79,68.61z"/>
			<path d="M99.35,57.99h3.46v4.67h4.44v-4.67h3.46v12.48h-3.46v-4.74h-4.44v4.74h-3.46V57.99z"/>
			<path d="M112.99,57.99h3.48v12.48h-3.48V57.99z"/>
			<path d="M118.75,57.99h5.35c3.15,0,5.19,1.62,5.19,4.42c0,2.94-2.26,4.49-5.36,4.49h-1.71v3.56h-3.46V57.99z M123.84,64.19
				c1.23,0,1.98-0.64,1.98-1.66c0-1.07-0.75-1.64-2-1.64h-1.62v3.3H123.84z"/>
			<path d="M130.74,57.99h5.35c3.16,0,5.19,1.62,5.19,4.42c0,2.94-2.26,4.49-5.36,4.49h-1.71v3.56h-3.46V57.99z M135.84,64.19
				c1.23,0,1.98-0.64,1.98-1.66c0-1.07-0.75-1.64-2-1.64h-1.62v3.3H135.84z"/>
			<path d="M142.81,57.99h3.48v12.48h-3.48V57.99z"/>
			<path d="M148.57,57.99h3.23l5.13,6.59v-6.59h3.42v12.48h-3.03l-5.33-6.84v6.84h-3.42V57.99z"/>
			<path d="M162.13,64.23c0-3.64,2.85-6.49,6.72-6.49c2.19,0,3.74,0.68,5.06,1.82L171.88,62c-0.89-0.75-1.78-1.18-3.01-1.18
				c-1.8,0-3.19,1.52-3.19,3.46c0,2.01,1.41,3.46,3.39,3.46c0.84,0,1.48-0.18,2-0.52v-1.51h-2.46v-2.53h5.74v5.61
				c-1.32,1.09-3.15,1.92-5.42,1.92C165.04,70.71,162.13,68.04,162.13,64.23z"/>
		</g>
	</g>
</g>
</svg>
